<svg width="24" height="24" viewBox="0 0 24 24" fill="none" xmlns="http://www.w3.org/2000/svg">
<g id="Frame">
<path id="Vector" d="M22.5 18.75V12.75C22.5 12.5511 22.421 12.3603 22.2803 12.2197C22.1397 12.079 21.9489 12 21.75 12C21.5511 12 21.3603 12.079 21.2197 12.2197C21.079 12.3603 21 12.5511 21 12.75V16.9397L13.2806 9.21937C13.211 9.14964 13.1282 9.09432 13.0372 9.05658C12.9461 9.01884 12.8486 8.99941 12.75 8.99941C12.6514 8.99941 12.5538 9.01884 12.4628 9.05658C12.3717 9.09432 12.289 9.14964 12.2194 9.21937L8.99999 12.4397L2.78061 6.21937C2.63988 6.07864 2.44901 5.99958 2.24999 5.99958C2.05097 5.99958 1.8601 6.07864 1.71936 6.21937C1.57863 6.36011 1.49957 6.55098 1.49957 6.75C1.49957 6.94902 1.57863 7.13989 1.71936 7.28063L8.46936 14.0306C8.53902 14.1004 8.62174 14.1557 8.71278 14.1934C8.80383 14.2312 8.90143 14.2506 8.99999 14.2506C9.09855 14.2506 9.19615 14.2312 9.2872 14.1934C9.37824 14.1557 9.46096 14.1004 9.53061 14.0306L12.75 10.8103L19.9397 18H15.75C15.5511 18 15.3603 18.079 15.2197 18.2197C15.079 18.3603 15 18.5511 15 18.75C15 18.9489 15.079 19.1397 15.2197 19.2803C15.3603 19.421 15.5511 19.5 15.75 19.5H21.75C21.9489 19.5 22.1397 19.421 22.2803 19.2803C22.421 19.1397 22.5 18.9489 22.5 18.75Z" fill="#FF3939"/>
</g>
</svg>
