<svg width="24" height="24" viewBox="0 0 24 24" fill="none" xmlns="http://www.w3.org/2000/svg">
<g id="Frame">
<path id="Vector" d="M5.03021 8.46927C4.96052 8.39959 4.8778 8.34432 4.78675 8.3066C4.69571 8.26889 4.59813 8.24948 4.49958 8.24948C4.40104 8.24948 4.30345 8.26889 4.21241 8.3066C4.12136 8.34432 4.03864 8.39959 3.96896 8.46927C3.89927 8.53896 3.844 8.62168 3.80629 8.71273C3.76858 8.80377 3.74916 8.90135 3.74916 8.9999C3.74916 9.09844 3.76858 9.19603 3.80629 9.28707C3.844 9.37811 3.89927 9.46084 3.96896 9.53052L11.469 17.0305C11.5386 17.1003 11.6213 17.1556 11.7124 17.1933C11.8034 17.2311 11.901 17.2505 11.9996 17.2505C12.0981 17.2505 12.1957 17.2311 12.2868 17.1933C12.3778 17.1556 12.4606 17.1003 12.5302 17.0305L20.0302 9.53052C20.1709 9.38979 20.25 9.19892 20.25 8.9999C20.25 8.80088 20.1709 8.61 20.0302 8.46927C19.8895 8.32854 19.6986 8.24948 19.4996 8.24948C19.3006 8.24948 19.1097 8.32854 18.969 8.46927L11.9996 15.4396L5.03021 8.46927Z" fill="#B68BF7"/>
</g>
</svg>
