<svg width="26" height="26" viewBox="0 0 26 26" fill="none" xmlns="http://www.w3.org/2000/svg">
<g id="Frame">
<path id="Vector" d="M22.375 5.38281H3.625C3.4696 5.38281 3.32056 5.44454 3.21068 5.55443C3.10079 5.66431 3.03906 5.81335 3.03906 5.96875V19.25C3.03906 19.6126 3.18311 19.9604 3.4395 20.2167C3.6959 20.4731 4.04365 20.6172 4.40625 20.6172H21.5938C21.9564 20.6172 22.3041 20.4731 22.5605 20.2167C22.8169 19.9604 22.9609 19.6126 22.9609 19.25V5.96875C22.9609 5.81335 22.8992 5.66431 22.7893 5.55443C22.6794 5.44454 22.5304 5.38281 22.375 5.38281ZM13 13.7676L5.13086 6.55469H20.8691L13 13.7676ZM10.4287 13L4.21094 18.6992V7.30078L10.4287 13ZM11.2959 13.7949L12.6094 14.9941C12.7174 15.093 12.8585 15.1478 13.0049 15.1478C13.1513 15.1478 13.2924 15.093 13.4004 14.9941L14.709 13.7949L20.8691 19.4453H5.13184L11.2959 13.7949ZM15.5713 13L21.7891 7.30078V18.6992L15.5713 13Z" fill="white" fill-opacity="0.7"/>
</g>
</svg>
