<svg width="26" height="26" viewBox="0 0 26 26" fill="none" xmlns="http://www.w3.org/2000/svg">
<g id="Frame">
<path id="Vector" d="M22.1397 16.1543L17.5264 14.0869C17.3174 13.9974 17.0893 13.9614 16.8628 13.9822C16.6364 14.003 16.4187 14.0799 16.2295 14.2061C16.2103 14.2184 16.192 14.2321 16.1748 14.2471L13.7637 16.2979C13.7387 16.3115 13.7108 16.3191 13.6823 16.3202C13.6539 16.3212 13.6255 16.3156 13.5996 16.3037C12.0498 15.5557 10.4443 13.96 9.69337 12.4317C9.68086 12.4061 9.67436 12.3781 9.67436 12.3496C9.67436 12.3212 9.68086 12.2931 9.69337 12.2676L11.751 9.8262C11.7658 9.80813 11.7794 9.78922 11.792 9.76956C11.9164 9.57962 11.9915 9.36169 12.0106 9.13545C12.0297 8.9092 11.9922 8.68176 11.9014 8.47366L9.84864 3.86819C9.73207 3.59632 9.53047 3.3696 9.27409 3.22204C9.01772 3.07449 8.7204 3.01406 8.42677 3.04983C7.15062 3.2176 5.97922 3.8443 5.13148 4.81282C4.28373 5.78134 3.81765 7.0254 3.82032 8.31253C3.82032 15.959 10.041 22.1797 17.6875 22.1797C18.9746 22.1822 20.2185 21.716 21.187 20.8683C22.1555 20.0206 22.7822 18.8493 22.9502 17.5733C22.9859 17.281 22.9263 16.985 22.7803 16.7294C22.6342 16.4737 22.4095 16.272 22.1397 16.1543ZM17.6875 21.0078C10.6875 21.0078 4.9922 15.3125 4.9922 8.31253C4.98893 7.3105 5.3506 6.34157 6.00963 5.58675C6.66865 4.83194 7.57995 4.34288 8.57325 4.21096H8.59571C8.63507 4.2117 8.67328 4.22431 8.70535 4.24713C8.73741 4.26996 8.76183 4.30195 8.7754 4.33889L10.8359 8.93948C10.8477 8.96506 10.8538 8.99287 10.8538 9.02102C10.8538 9.04917 10.8477 9.07699 10.8359 9.10256L8.77443 11.5498C8.75905 11.5673 8.74501 11.5859 8.73243 11.6055C8.60343 11.8024 8.52747 12.0293 8.5119 12.2642C8.49633 12.4991 8.54169 12.7341 8.64357 12.9463C9.50978 14.7198 11.2969 16.4932 13.0899 17.3594C13.3033 17.4607 13.5394 17.505 13.7751 17.4879C14.0108 17.4707 14.238 17.3928 14.4346 17.2617C14.4531 17.249 14.4717 17.2354 14.4893 17.2207L16.8994 15.1699C16.9232 15.1572 16.9495 15.1497 16.9765 15.148C17.0035 15.1463 17.0305 15.1505 17.0557 15.1602L21.6699 17.2276C21.7076 17.2436 21.7393 17.2711 21.7605 17.3062C21.7817 17.3412 21.7914 17.382 21.7881 17.4229C21.6569 18.4166 21.1683 19.3286 20.4136 19.9884C19.659 20.6481 18.6899 21.0105 17.6875 21.0078Z" fill="white" fill-opacity="0.7"/>
</g>
</svg>
